<svg width="109" height="24" viewBox="0 0 109 24" fill="none" xmlns="http://www.w3.org/2000/svg">
<path d="M-0.216 19L7.272 2.2H11.112L18.624 19H14.544L8.4 4.168H9.936L3.768 19H-0.216ZM3.528 15.4L4.56 12.448H13.2L14.256 15.4H3.528ZM26.3258 19.192C24.9338 19.192 23.6938 18.912 22.6058 18.352C21.5178 17.776 20.6618 16.984 20.0378 15.976C19.4298 14.968 19.1258 13.824 19.1258 12.544C19.1258 11.248 19.4298 10.104 20.0378 9.112C20.6618 8.104 21.5178 7.32 22.6058 6.76C23.6938 6.184 24.9338 5.896 26.3258 5.896C27.6858 5.896 28.8698 6.184 29.8778 6.76C30.8858 7.32 31.6298 8.128 32.1098 9.184L29.2058 10.744C28.8698 10.136 28.4458 9.688 27.9338 9.4C27.4378 9.112 26.8938 8.968 26.3018 8.968C25.6618 8.968 25.0858 9.112 24.5738 9.4C24.0618 9.688 23.6538 10.096 23.3498 10.624C23.0618 11.152 22.9178 11.792 22.9178 12.544C22.9178 13.296 23.0618 13.936 23.3498 14.464C23.6538 14.992 24.0618 15.4 24.5738 15.688C25.0858 15.976 25.6618 16.12 26.3018 16.12C26.8938 16.12 27.4378 15.984 27.9338 15.712C28.4458 15.424 28.8698 14.968 29.2058 14.344L32.1098 15.928C31.6298 16.968 30.8858 17.776 29.8778 18.352C28.8698 18.912 27.6858 19.192 26.3258 19.192ZM40.4414 19.192C39.0494 19.192 37.8094 18.912 36.7214 18.352C35.6334 17.776 34.7774 16.984 34.1534 15.976C33.5454 14.968 33.2414 13.824 33.2414 12.544C33.2414 11.248 33.5454 10.104 34.1534 9.112C34.7774 8.104 35.6334 7.32 36.7214 6.76C37.8094 6.184 39.0494 5.896 40.4414 5.896C41.8014 5.896 42.9854 6.184 43.9934 6.76C45.0014 7.32 45.7454 8.128 46.2254 9.184L43.3214 10.744C42.9854 10.136 42.5614 9.688 42.0494 9.4C41.5534 9.112 41.0094 8.968 40.4174 8.968C39.7774 8.968 39.2014 9.112 38.6894 9.4C38.1774 9.688 37.7694 10.096 37.4654 10.624C37.1774 11.152 37.0334 11.792 37.0334 12.544C37.0334 13.296 37.1774 13.936 37.4654 14.464C37.7694 14.992 38.1774 15.4 38.6894 15.688C39.2014 15.976 39.7774 16.12 40.4174 16.12C41.0094 16.12 41.5534 15.984 42.0494 15.712C42.5614 15.424 42.9854 14.968 43.3214 14.344L46.2254 15.928C45.7454 16.968 45.0014 17.776 43.9934 18.352C42.9854 18.912 41.8014 19.192 40.4414 19.192ZM48.4108 19V6.088H52.1548V19H48.4108ZM50.2828 4.288C49.5948 4.288 49.0348 4.088 48.6028 3.688C48.1708 3.288 47.9548 2.792 47.9548 2.2C47.9548 1.608 48.1708 1.112 48.6028 0.711999C49.0348 0.311999 49.5948 0.111999 50.2828 0.111999C50.9708 0.111999 51.5308 0.303999 51.9628 0.688C52.3948 1.056 52.6108 1.536 52.6108 2.128C52.6108 2.752 52.3948 3.272 51.9628 3.688C51.5468 4.088 50.9868 4.288 50.2828 4.288ZM61.8736 19.192C60.4976 19.192 59.2736 18.904 58.2016 18.328C57.1456 17.752 56.3056 16.968 55.6816 15.976C55.0736 14.968 54.7696 13.824 54.7696 12.544C54.7696 11.248 55.0736 10.104 55.6816 9.112C56.3056 8.104 57.1456 7.32 58.2016 6.76C59.2736 6.184 60.4976 5.896 61.8736 5.896C63.2336 5.896 64.4496 6.184 65.5216 6.76C66.5936 7.32 67.4336 8.096 68.0416 9.088C68.6496 10.08 68.9536 11.232 68.9536 12.544C68.9536 13.824 68.6496 14.968 68.0416 15.976C67.4336 16.968 66.5936 17.752 65.5216 18.328C64.4496 18.904 63.2336 19.192 61.8736 19.192ZM61.8736 16.12C62.4976 16.12 63.0576 15.976 63.5536 15.688C64.0496 15.4 64.4416 14.992 64.7296 14.464C65.0176 13.92 65.1616 13.28 65.1616 12.544C65.1616 11.792 65.0176 11.152 64.7296 10.624C64.4416 10.096 64.0496 9.688 63.5536 9.4C63.0576 9.112 62.4976 8.968 61.8736 8.968C61.2496 8.968 60.6896 9.112 60.1936 9.4C59.6976 9.688 59.2976 10.096 58.9936 10.624C58.7056 11.152 58.5616 11.792 58.5616 12.544C58.5616 13.28 58.7056 13.92 58.9936 14.464C59.2976 14.992 59.6976 15.4 60.1936 15.688C60.6896 15.976 61.2496 16.12 61.8736 16.12ZM70.5961 23.848C70.0201 23.848 69.4681 23.784 68.9401 23.656C68.4121 23.544 67.9641 23.368 67.5961 23.128L68.6041 20.416C69.0361 20.72 69.5641 20.872 70.1881 20.872C70.6521 20.872 71.0201 20.712 71.2921 20.392C71.5801 20.088 71.7241 19.624 71.7241 19V6.088H75.4681V18.976C75.4681 20.464 75.0441 21.648 74.1961 22.528C73.3481 23.408 72.1481 23.848 70.5961 23.848ZM73.5961 4.288C72.9081 4.288 72.3481 4.088 71.9161 3.688C71.4841 3.288 71.2681 2.792 71.2681 2.2C71.2681 1.608 71.4841 1.112 71.9161 0.711999C72.3481 0.311999 72.9081 0.111999 73.5961 0.111999C74.2841 0.111999 74.8441 0.303999 75.2761 0.688C75.7081 1.056 75.9241 1.536 75.9241 2.128C75.9241 2.752 75.7081 3.272 75.2761 3.688C74.8601 4.088 74.3001 4.288 73.5961 4.288ZM85.1595 19.192C83.7835 19.192 82.5595 18.904 81.4875 18.328C80.4315 17.752 79.5915 16.968 78.9675 15.976C78.3595 14.968 78.0555 13.824 78.0555 12.544C78.0555 11.248 78.3595 10.104 78.9675 9.112C79.5915 8.104 80.4315 7.32 81.4875 6.76C82.5595 6.184 83.7835 5.896 85.1595 5.896C86.5195 5.896 87.7355 6.184 88.8075 6.76C89.8795 7.32 90.7195 8.096 91.3275 9.088C91.9355 10.08 92.2395 11.232 92.2395 12.544C92.2395 13.824 91.9355 14.968 91.3275 15.976C90.7195 16.968 89.8795 17.752 88.8075 18.328C87.7355 18.904 86.5195 19.192 85.1595 19.192ZM85.1595 16.12C85.7835 16.12 86.3435 15.976 86.8395 15.688C87.3355 15.4 87.7275 14.992 88.0155 14.464C88.3035 13.92 88.4475 13.28 88.4475 12.544C88.4475 11.792 88.3035 11.152 88.0155 10.624C87.7275 10.096 87.3355 9.688 86.8395 9.4C86.3435 9.112 85.7835 8.968 85.1595 8.968C84.5355 8.968 83.9755 9.112 83.4795 9.4C82.9835 9.688 82.5835 10.096 82.2795 10.624C81.9915 11.152 81.8475 11.792 81.8475 12.544C81.8475 13.28 81.9915 13.92 82.2795 14.464C82.5835 14.992 82.9835 15.4 83.4795 15.688C83.9755 15.976 84.5355 16.12 85.1595 16.12ZM102.474 19.192C101.338 19.192 100.362 18.952 99.5461 18.472C98.7301 17.992 98.1061 17.264 97.6741 16.288C97.2421 15.296 97.0261 14.048 97.0261 12.544C97.0261 11.024 97.2501 9.776 97.6981 8.8C98.1621 7.824 98.8021 7.096 99.6181 6.616C100.434 6.136 101.386 5.896 102.474 5.896C103.69 5.896 104.778 6.168 105.738 6.712C106.714 7.256 107.482 8.024 108.042 9.016C108.618 10.008 108.906 11.184 108.906 12.544C108.906 13.888 108.618 15.056 108.042 16.048C107.482 17.04 106.714 17.816 105.738 18.376C104.778 18.92 103.69 19.192 102.474 19.192ZM94.8421 19V1.192H98.5861V8.704L98.3461 12.52L98.4181 16.36V19H94.8421ZM101.826 16.12C102.45 16.12 103.002 15.976 103.482 15.688C103.978 15.4 104.37 14.992 104.658 14.464C104.962 13.92 105.114 13.28 105.114 12.544C105.114 11.792 104.962 11.152 104.658 10.624C104.37 10.096 103.978 9.688 103.482 9.4C103.002 9.112 102.45 8.968 101.826 8.968C101.202 8.968 100.642 9.112 100.146 9.4C99.6501 9.688 99.2581 10.096 98.9701 10.624C98.6821 11.152 98.5381 11.792 98.5381 12.544C98.5381 13.28 98.6821 13.92 98.9701 14.464C99.2581 14.992 99.6501 15.4 100.146 15.688C100.642 15.976 101.202 16.12 101.826 16.12Z" fill="#252B42"/>
</svg>
