<svg width="115" height="20" viewBox="0 0 115 20" fill="none" xmlns="http://www.w3.org/2000/svg">
<path d="M-0.216 19L7.272 2.2H11.112L18.624 19H14.544L8.4 4.168H9.936L3.768 19H-0.216ZM3.528 15.4L4.56 12.448H13.2L14.256 15.4H3.528ZM26.3258 19.192C24.9338 19.192 23.6938 18.912 22.6058 18.352C21.5178 17.776 20.6618 16.984 20.0378 15.976C19.4298 14.968 19.1258 13.824 19.1258 12.544C19.1258 11.248 19.4298 10.104 20.0378 9.112C20.6618 8.104 21.5178 7.32 22.6058 6.76C23.6938 6.184 24.9338 5.896 26.3258 5.896C27.6858 5.896 28.8698 6.184 29.8778 6.76C30.8858 7.32 31.6298 8.128 32.1098 9.184L29.2058 10.744C28.8698 10.136 28.4458 9.688 27.9338 9.4C27.4378 9.112 26.8938 8.968 26.3018 8.968C25.6618 8.968 25.0858 9.112 24.5738 9.4C24.0618 9.688 23.6538 10.096 23.3498 10.624C23.0618 11.152 22.9178 11.792 22.9178 12.544C22.9178 13.296 23.0618 13.936 23.3498 14.464C23.6538 14.992 24.0618 15.4 24.5738 15.688C25.0858 15.976 25.6618 16.12 26.3018 16.12C26.8938 16.12 27.4378 15.984 27.9338 15.712C28.4458 15.424 28.8698 14.968 29.2058 14.344L32.1098 15.928C31.6298 16.968 30.8858 17.776 29.8778 18.352C28.8698 18.912 27.6858 19.192 26.3258 19.192ZM40.4414 19.192C39.0494 19.192 37.8094 18.912 36.7214 18.352C35.6334 17.776 34.7774 16.984 34.1534 15.976C33.5454 14.968 33.2414 13.824 33.2414 12.544C33.2414 11.248 33.5454 10.104 34.1534 9.112C34.7774 8.104 35.6334 7.32 36.7214 6.76C37.8094 6.184 39.0494 5.896 40.4414 5.896C41.8014 5.896 42.9854 6.184 43.9934 6.76C45.0014 7.32 45.7454 8.128 46.2254 9.184L43.3214 10.744C42.9854 10.136 42.5614 9.688 42.0494 9.4C41.5534 9.112 41.0094 8.968 40.4174 8.968C39.7774 8.968 39.2014 9.112 38.6894 9.4C38.1774 9.688 37.7694 10.096 37.4654 10.624C37.1774 11.152 37.0334 11.792 37.0334 12.544C37.0334 13.296 37.1774 13.936 37.4654 14.464C37.7694 14.992 38.1774 15.4 38.6894 15.688C39.2014 15.976 39.7774 16.12 40.4174 16.12C41.0094 16.12 41.5534 15.984 42.0494 15.712C42.5614 15.424 42.9854 14.968 43.3214 14.344L46.2254 15.928C45.7454 16.968 45.0014 17.776 43.9934 18.352C42.9854 18.912 41.8014 19.192 40.4414 19.192ZM48.4108 19V6.088H52.1548V19H48.4108ZM50.2828 4.288C49.5948 4.288 49.0348 4.088 48.6028 3.688C48.1708 3.288 47.9548 2.792 47.9548 2.2C47.9548 1.608 48.1708 1.112 48.6028 0.711999C49.0348 0.311999 49.5948 0.111999 50.2828 0.111999C50.9708 0.111999 51.5308 0.303999 51.9628 0.688C52.3948 1.056 52.6108 1.536 52.6108 2.128C52.6108 2.752 52.3948 3.272 51.9628 3.688C51.5468 4.088 50.9868 4.288 50.2828 4.288ZM61.8736 19.192C60.4976 19.192 59.2736 18.904 58.2016 18.328C57.1456 17.752 56.3056 16.968 55.6816 15.976C55.0736 14.968 54.7696 13.824 54.7696 12.544C54.7696 11.248 55.0736 10.104 55.6816 9.112C56.3056 8.104 57.1456 7.32 58.2016 6.76C59.2736 6.184 60.4976 5.896 61.8736 5.896C63.2336 5.896 64.4496 6.184 65.5216 6.76C66.5936 7.32 67.4336 8.096 68.0416 9.088C68.6496 10.08 68.9536 11.232 68.9536 12.544C68.9536 13.824 68.6496 14.968 68.0416 15.976C67.4336 16.968 66.5936 17.752 65.5216 18.328C64.4496 18.904 63.2336 19.192 61.8736 19.192ZM61.8736 16.12C62.4976 16.12 63.0576 15.976 63.5536 15.688C64.0496 15.4 64.4416 14.992 64.7296 14.464C65.0176 13.92 65.1616 13.28 65.1616 12.544C65.1616 11.792 65.0176 11.152 64.7296 10.624C64.4416 10.096 64.0496 9.688 63.5536 9.4C63.0576 9.112 62.4976 8.968 61.8736 8.968C61.2496 8.968 60.6896 9.112 60.1936 9.4C59.6976 9.688 59.2976 10.096 58.9936 10.624C58.7056 11.152 58.5616 11.792 58.5616 12.544C58.5616 13.28 58.7056 13.92 58.9936 14.464C59.2976 14.992 59.6976 15.4 60.1936 15.688C60.6896 15.976 61.2496 16.12 61.8736 16.12ZM74.9161 19.288C73.7801 19.288 72.7321 19.08 71.7721 18.664C70.8281 18.232 70.0521 17.624 69.4441 16.84L71.6041 14.248C72.0681 14.856 72.5561 15.32 73.0681 15.64C73.5801 15.944 74.1321 16.096 74.7241 16.096C76.3081 16.096 77.1001 15.168 77.1001 13.312V5.32H71.1961V2.2H80.9641V13.096C80.9641 15.176 80.4521 16.728 79.4281 17.752C78.4041 18.776 76.9001 19.288 74.9161 19.288ZM90.7845 19.192C89.4085 19.192 88.1845 18.904 87.1125 18.328C86.0565 17.752 85.2165 16.968 84.5925 15.976C83.9845 14.968 83.6805 13.824 83.6805 12.544C83.6805 11.248 83.9845 10.104 84.5925 9.112C85.2165 8.104 86.0565 7.32 87.1125 6.76C88.1845 6.184 89.4085 5.896 90.7845 5.896C92.1445 5.896 93.3605 6.184 94.4325 6.76C95.5045 7.32 96.3445 8.096 96.9525 9.088C97.5605 10.08 97.8645 11.232 97.8645 12.544C97.8645 13.824 97.5605 14.968 96.9525 15.976C96.3445 16.968 95.5045 17.752 94.4325 18.328C93.3605 18.904 92.1445 19.192 90.7845 19.192ZM90.7845 16.12C91.4085 16.12 91.9685 15.976 92.4645 15.688C92.9605 15.4 93.3525 14.992 93.6405 14.464C93.9285 13.92 94.0725 13.28 94.0725 12.544C94.0725 11.792 93.9285 11.152 93.6405 10.624C93.3525 10.096 92.9605 9.688 92.4645 9.4C91.9685 9.112 91.4085 8.968 90.7845 8.968C90.1605 8.968 89.6005 9.112 89.1045 9.4C88.6085 9.688 88.2085 10.096 87.9045 10.624C87.6165 11.152 87.4725 11.792 87.4725 12.544C87.4725 13.28 87.6165 13.92 87.9045 14.464C88.2085 14.992 88.6085 15.4 89.1045 15.688C89.6005 15.976 90.1605 16.12 90.7845 16.12ZM108.099 19.192C106.963 19.192 105.987 18.952 105.171 18.472C104.355 17.992 103.731 17.264 103.299 16.288C102.867 15.296 102.651 14.048 102.651 12.544C102.651 11.024 102.875 9.776 103.323 8.8C103.787 7.824 104.427 7.096 105.243 6.616C106.059 6.136 107.011 5.896 108.099 5.896C109.315 5.896 110.403 6.168 111.363 6.712C112.339 7.256 113.107 8.024 113.667 9.016C114.243 10.008 114.531 11.184 114.531 12.544C114.531 13.888 114.243 15.056 113.667 16.048C113.107 17.04 112.339 17.816 111.363 18.376C110.403 18.92 109.315 19.192 108.099 19.192ZM100.467 19V1.192H104.211V8.704L103.971 12.52L104.043 16.36V19H100.467ZM107.451 16.12C108.075 16.12 108.627 15.976 109.107 15.688C109.603 15.4 109.995 14.992 110.283 14.464C110.587 13.92 110.739 13.28 110.739 12.544C110.739 11.792 110.587 11.152 110.283 10.624C109.995 10.096 109.603 9.688 109.107 9.4C108.627 9.112 108.075 8.968 107.451 8.968C106.827 8.968 106.267 9.112 105.771 9.4C105.275 9.688 104.883 10.096 104.595 10.624C104.307 11.152 104.163 11.792 104.163 12.544C104.163 13.28 104.307 13.92 104.595 14.464C104.883 14.992 105.275 15.4 105.771 15.688C106.267 15.976 106.827 16.12 107.451 16.12Z" fill="#252B42"/>
</svg>
